<svg 
    width="180"
    height="180"
    viewBox="0 0 180 180"
    fill="none"
    xmlns="http://www.w3.org/2000/svg">

    <path 
        d="M90.475 7C93.475 10.8 96.575 14.6 99.575 18.5C102.275 21.9 104.975 25.3 107.575 28.8C108.475 30.1 109.475 30.3 110.875 29.8C120.375 26.5 126.075 24.2 137.875 20.6C138.075 20.5 139.875 20 140.275 20.6C140.475 20.9 140.375 21.6 140.275 22.3C140.275 22.6 140.175 22.8 140.175 22.8C136.975 33.2 133.675 43.6 130.475 54C130.175 55.1 129.675 55.4 128.575 55.4C102.975 55.4 77.375 55.4 51.775 55.4C50.675 55.4 50.175 55.1 49.875 54C46.675 43.5 43.375 33.1 40.175 22.6C39.975 22 39.875 20.8 40.275 20.6C40.775 20.3 41.775 20.3 42.475 20.5C51.475 23.5 60.375 26.5 69.375 29.7C71.175 30.4 72.175 30 73.275 28.5C75.975 24.9 83.975 13.9 88.375 8.9C89.075 8.1 89.575 7.5 89.975 7.1C90.175 7.1 90.275 7 90.475 7Z" 
        fill="#E4391E"/>

    <path 
        d="M129.375 59.6C127.975 64.1 126.775 68.5 125.275 72.8C125.075 73.4 123.775 74 122.875 74.1C119.775 74.3 116.675 74.2 113.575 74.2C104.575 74.2 98.775 80.3 99.075 89.3C99.375 97.4 99.575 105.5 99.775 113.6C100.175 128.2 100.575 142.8 101.175 157.5C101.275 159.6 100.775 161.3 99.375 162.9C96.775 165.7 94.275 168.6 91.775 171.5C90.775 172.7 89.775 172.8 88.675 171.5C86.075 168.5 83.575 165.6 80.875 162.7C79.475 161.2 79.075 159.6 79.175 157.6C79.575 144.7 79.975 131.8 80.375 118.9C80.675 108.5 81.075 98.1 81.175 87.7C81.275 80 75.275 74.1 67.575 74C64.275 74 60.875 74 57.575 74C56.375 74 55.375 73.6 54.975 72.4C53.675 68.1 52.375 63.9 51.075 59.5C77.275 59.6 103.175 59.6 129.375 59.6ZM93.075 159.4C93.075 157.9 91.675 156.6 90.175 156.6C88.675 156.6 87.375 157.9 87.375 159.4C87.375 161 88.775 162.3 90.375 162.2C91.875 162.2 93.175 160.9 93.075 159.4Z"
        fill="white"/>

</svg>
