<?xml version="1.0" encoding="utf-8"?>
<!-- Generator: Adobe Illustrator 22.1.0, SVG Export Plug-In . SVG Version: 6.00 Build 0)  -->
<svg 
	version="1.1" 
	id="Camada_1"
	xmlns="http://www.w3.org/2000/svg" 
	xmlns:xlink="http://www.w3.org/1999/xlink"
	x="0px"
	y="0px"
	viewBox="0 0 771.3 226.7" 
	style="enable-background:new 0 0 771.3 226.7;" 
	xml:space="preserve" >
	
	<style type="text/css">
		.st0{fill:#E4391E;}
		.st1{fill:#1C1C39;}
	</style>

	<g>
		<path class="st0" d="M97.5,26.3c3,3.8,6.1,7.6,9.1,11.5c2.7,3.4,5.4,6.8,8,10.3c0.9,1.3,1.9,1.5,3.3,1c9.5-3.3,15.2-5.6,27-9.2
			c0.2-0.1,2-0.6,2.4,0c0.2,0.3,0.1,1,0,1.7c0,0.3-0.1,0.5-0.1,0.5c-3.2,10.4-6.5,20.8-9.7,31.2c-0.3,1.1-0.8,1.4-1.9,1.4
			c-25.6,0-51.2,0-76.8,0c-1.1,0-1.6-0.3-1.9-1.4c-3.2-10.5-6.5-20.9-9.7-31.4c-0.2-0.6-0.3-1.8,0.1-2c0.5-0.3,1.5-0.3,2.2-0.1
			c9,3,17.9,6,26.9,9.2c1.8,0.7,2.8,0.3,3.9-1.2c2.7-3.6,10.7-14.6,15.1-19.6c0.7-0.8,1.2-1.4,1.6-1.8C97.2,26.4,97.3,26.3,97.5,26.3
			z"/>

		<path class="st1" d="M313.8,78.9c2.9,0,5.7,0.1,8.6,0c1.9-0.1,2.8,0.7,3.4,2.4c5.4,16.1,10.8,32.2,16.2,48.2
			c2.2,6.6,4.5,13.1,6.7,19.7c0.4,1.2,0.8,2.3,2.3,2.2c1.4,0,1.7-1.2,2.1-2.2c7.6-22.6,15.2-45.2,22.8-67.8c0.6-1.9,1.6-2.6,3.6-2.6
			c5.7,0.1,11.4,0,17.1,0c2.4,0,2.9,0.5,3.2,2.9c1.8,13.9,3.6,27.8,5.4,41.7c1.8,13.8,3.6,27.5,5.4,41.3c0.5,4.1,1.1,8.1,1.5,12.2
			c0.3,2.4-0.4,3-2.8,3c-4.5,0-9.1,0-13.6,0c-2.1,0-2.7-0.6-3-2.7c-2.5-18.4-4.9-36.8-7.4-55.3c-0.3-1.9-0.5-3.8-0.7-5.7
			c-0.1-1.3-0.5-2.4-2-2.5c-1.4-0.1-1.9,0.9-2.2,2c-4,11.6-7.9,23.2-11.9,34.8c-3.1,9-6.2,18-9.2,27.1c-0.5,1.6-1.4,2.2-3,2.1
			c-3.6-0.1-7.2-0.1-10.8,0c-1.6,0-2.5-0.6-3-2.1c-6.9-20.3-13.9-40.5-20.8-60.8c-0.5-1.3-0.5-3.2-2.6-3.1c-2.1,0.1-1.9,2-2.1,3.4
			c-1.8,13.6-3.6,27.3-5.5,40.9c-0.9,6.6-1.8,13.1-2.6,19.7c-0.2,1.4-1,2.1-2.4,2.1c-4.9,0-9.8,0-14.7,0c-1.8,0-2.5-0.9-2.2-2.8
			c0.9-7.2,1.8-14.4,2.7-21.6c1.7-12.9,3.4-25.8,5.1-38.7c1.5-11.8,3.1-23.6,4.6-35.4c0.2-1.8,1.1-2.6,3-2.5
			C307.9,78.9,310.8,78.9,313.8,78.9z"/>

		<path class="st1" d="M634.6,129.4c0-15.8,0-31.5,0-47.3c0-2.8,0.5-3.2,3.2-3.2c14.5,0,28.9,0,43.4,0c15.3,0,28.2,10.7,31,25.7
			c2.3,12-3.4,24.4-14.3,31.2c-1.2,0.8-2.5,1.4-3.7,2.2c-1.9,1.1-2.1,1.8-1.1,3.8c4.5,8.4,8.9,16.9,13.4,25.3c1.7,3.1,3.3,6.2,5,9.3
			c1.2,2.2,0.3,3.6-2.2,3.6c-4.1,0-8.2,0-12.3,0c-1.3,0-2.2-0.5-2.8-1.7c-8.1-14.9-16.2-29.7-24.2-44.6c-1.2-2.3-0.5-3.5,2.1-3.7
			c2.7-0.2,5.5-0.2,8.1-0.9c13.8-3.6,18.5-21.7,8.6-32.3c-3.7-3.9-8.1-6.1-13.4-6.2c-6.6-0.1-13.3-0.2-19.9-0.3
			c-2.7,0-3.3,0.6-3.3,3.2c0,16.4,0,32.9,0,49.3c0,11.4,0,22.7,0,34.1c0,2.4-0.6,3-2.9,3c-3.9,0-7.8,0-11.7,0c-2.3,0-2.8-0.6-2.8-2.9
			C634.5,161.2,634.6,145.3,634.6,129.4z"/>

		<path class="st1" d="M568,179.9c-7.3,0-14.3,0-21.3-0.1c-0.6,0-1.5-0.8-1.7-1.4c-6.6-19.1-13.2-38.3-19.8-57.4c-1-2.9-2-5.9-3-8.8
			c-0.4-1.1-0.7-2.3-2.2-2.3c-1.5,0-1.8,1.2-2.2,2.3c-7.2,21.6-14.3,43.2-21.5,64.9c-0.9,2.8-0.9,2.8-3.8,2.8c-5.5,0-11,0-16.6,0
			c-2.9,0-3.7-1.1-2.6-3.9c12.5-31.7,25-63.3,37.5-95c0.6-1.6,1.4-2.3,3.2-2.2c4.3,0.1,8.6,0.1,12.8,0c1.6,0,2.5,0.5,3.1,2
			c12.5,32.5,25.1,65,37.7,97.5C567.6,178.9,567.7,179.3,568,179.9z"/>

		<path class="st1" d="M136.4,78.9c-1.4,4.5-2.6,8.9-4.1,13.2c-0.2,0.6-1.5,1.2-2.4,1.3c-3.1,0.2-6.2,0.1-9.3,0.1
			c-9,0-14.8,6.1-14.5,15.1c0.3,8.1,0.5,16.2,0.7,24.3c0.4,14.6,0.8,29.2,1.4,43.9c0.1,2.1-0.4,3.8-1.8,5.4c-2.6,2.8-5.1,5.7-7.6,8.6
			c-1,1.2-2,1.3-3.1,0c-2.6-3-5.1-5.9-7.8-8.8c-1.4-1.5-1.8-3.1-1.7-5.1c0.4-12.9,0.8-25.8,1.2-38.7c0.3-10.4,0.7-20.8,0.8-31.2
			c0.1-7.7-5.9-13.6-13.6-13.7c-3.3,0-6.7,0-10,0c-1.2,0-2.2-0.4-2.6-1.6c-1.3-4.3-2.6-8.5-3.9-12.9C84.3,78.9,110.2,78.9,136.4,78.9
			z M100.1,178.7c0-1.5-1.4-2.8-2.9-2.8c-1.5,0-2.8,1.3-2.8,2.8c0,1.6,1.4,2.9,3,2.8C98.9,181.5,100.2,180.2,100.1,178.7z"/>

		<path class="st1" d="M221.9,129.4c0,15.6,0,31.3,0,46.9c0,3.3-0.4,3.6-3.6,3.6c-3.7,0-7.4,0-11.2,0c-2.1,0-2.8-0.7-2.8-2.8
			c0-31.8,0-63.6,0-95.4c0-2.1,0.7-2.8,2.8-2.8c3.9,0,7.8,0,11.7,0c2.5,0,3.1,0.6,3.1,3.1C221.9,97.8,221.9,113.6,221.9,129.4z"/>

	</g>
	
</svg>
