<svg width="100" height="100" viewBox="0 0 100 100" fill="none" xmlns="http://www.w3.org/2000/svg">
<path d="M50 56C61.1208 56 72.3129 56 83.4337 56C85.7861 56 86 56.2273 86 58.0455C86 60.1477 86 62.25 86 64.4091C86 65.6023 85.501 66 84.004 66C61.3347 66 38.6653 66 15.996 66C14.499 66 14 65.6023 14 64.4091C14 62.1932 14 59.9773 14 57.7614C14 56.3409 14.4277 56 16.2099 56C27.4733 56 38.7366 56 50 56Z" fill="#E4391E"/>
<path d="M50 76C61.1208 76 72.3129 76 83.4337 76C85.7861 76 86 76.2273 86 78.0455C86 80.1477 86 82.25 86 84.4091C86 85.6023 85.501 86 84.004 86C61.3347 86 38.6653 86 15.996 86C14.499 86 14 85.6023 14 84.4091C14 82.1932 14 79.9773 14 77.7614C14 76.3409 14.4277 76 16.2099 76C27.4733 76 38.7366 76 50 76Z" fill="#E4391E"/>
<path d="M50.2508 10C52.9403 12.8264 55.7195 15.6529 58.4089 18.5537C60.8295 21.0826 63.25 23.6116 65.5809 26.2149C66.3878 27.1818 67.2843 27.3306 68.5394 26.9587C77.0561 24.5041 82.1662 22.7934 92.7449 20.1157C92.9242 20.0413 94.5379 19.6694 94.8965 20.1157C95.0758 20.3388 94.9861 20.8595 94.8965 21.3802C94.8965 21.6033 94.8068 21.7521 94.8068 21.7521C91.938 29.4876 88.9796 37.2231 86.1108 44.9587C85.8418 45.7769 85.3936 46 84.4074 46C61.4571 46 38.5067 46 15.5563 46C14.5701 46 14.1219 45.7769 13.8529 44.9587C10.9841 37.1488 8.02569 29.4132 5.15689 21.6033C4.97759 21.157 4.88794 20.2645 5.24654 20.1157C5.69479 19.8926 6.59129 19.8926 7.21884 20.0413C15.2873 22.2727 23.2662 24.5041 31.3347 26.8843C32.9484 27.405 33.8449 27.1074 34.831 25.9917C37.2516 23.3141 44.4236 15.1322 48.3682 11.4132C48.9957 10.8182 49.444 10.3719 49.8026 10.0744C49.9819 10.0744 50.0715 10 50.2508 10Z" fill="#E4391E"/>
</svg>
